<svg x="-11" y="-8" width="1060.000000" height="60.500000">
    <rect x="148.910412" y="0.000000" width="73.849879" height="10.000000" fill="#ffdd55" stroke-width="0"/>
    <rect x="394.673123" y="0.000000" width="46.004843" height="10.000000" fill="#d38d5f" stroke-width="0"/>
    <rect x="451.573850" y="0.000000" width="66.585956" height="10.000000" fill="#ffdd55" stroke-width="0"/>
    <rect x="719.128329" y="0.000000" width="53.268765" height="10.000000" fill="#ffdd55" stroke-width="0"/>
    <rect x="834.140436" y="0.000000" width="42.372881" height="10.000000" fill="#d38d5f" stroke-width="0"/>
    <rect x="886.198547" y="0.000000" width="30.266344" height="10.000000" fill="#ffdd55" stroke-width="0"/>
    <rect x="968.523002" y="0.000000" width="31.476998" height="10.000000" fill="#8dd35f" stroke-width="0"/>
    <rect x="299.031477" y="10.000000" width="87.167070" height="10.000000" fill="#ffdd55" stroke-width="0"/>
    <rect x="582.324455" y="10.000000" width="69.007264" height="10.000000" fill="#ffdd55" stroke-width="0"/>
    <rect x="743.341404" y="10.000000" width="82.324455" height="10.000000" fill="#ffdd55" stroke-width="0"/>
    <rect x="205.811138" y="20.000000" width="87.167070" height="10.000000" fill="#ffdd55" stroke-width="0"/>
    <rect x="469.733656" y="20.000000" width="72.639225" height="10.000000" fill="#ffdd55" stroke-width="0"/>
    <rect x="659.806295" y="20.000000" width="49.636804" height="10.000000" fill="#d38d5f" stroke-width="0"/>
    <rect x="33.898305" y="30.000000" width="100.484262" height="10.000000" fill="#d38d5f" stroke-width="0"/>
    <rect x="171.912833" y="30.000000" width="131.961259" height="10.000000" fill="#ffdd55" stroke-width="0"/>
    <rect x="929.782082" y="30.000000" width="35.108959" height="10.000000" fill="#d38d5f" stroke-width="0"/>
<line x1="0" y1="50.500000" x2="1020.000000" y2="50.500000"                      style="stroke:rgb(0,0,0);stroke-width:1"/>
<text x="1010.000000" y="8.000000" style="font-size:6pt">Thread 0</text>
<text x="1010.000000" y="18.000000" style="font-size:6pt">Thread 1</text>
<text x="1010.000000" y="28.000000" style="font-size:6pt">Thread 2</text>
<text x="1010.000000" y="38.000000" style="font-size:6pt">Thread 3</text>
<text x="0" y="59.500000" style="font-size:6pt">Time (usec.)</text>
<line x1="100.000000" y1="49.500000" x2="100.000000" y2="51.500000"                      style="stroke:rgb(0,0,0);stroke-width:0.5"/>
<text x="100.000000" y="57.500000" style="font-size:6pt"> 83 </text>
<line x1="200.000000" y1="49.500000" x2="200.000000" y2="51.500000"                      style="stroke:rgb(0,0,0);stroke-width:0.5"/>
<text x="200.000000" y="57.500000" style="font-size:6pt"> 165 </text>
<line x1="300.000000" y1="49.500000" x2="300.000000" y2="51.500000"                      style="stroke:rgb(0,0,0);stroke-width:0.5"/>
<text x="300.000000" y="57.500000" style="font-size:6pt"> 248 </text>
<line x1="400.000000" y1="49.500000" x2="400.000000" y2="51.500000"                      style="stroke:rgb(0,0,0);stroke-width:0.5"/>
<text x="400.000000" y="57.500000" style="font-size:6pt"> 330 </text>
<line x1="500.000000" y1="49.500000" x2="500.000000" y2="51.500000"                      style="stroke:rgb(0,0,0);stroke-width:0.5"/>
<text x="500.000000" y="57.500000" style="font-size:6pt"> 413 </text>
<line x1="600.000000" y1="49.500000" x2="600.000000" y2="51.500000"                      style="stroke:rgb(0,0,0);stroke-width:0.5"/>
<text x="600.000000" y="57.500000" style="font-size:6pt"> 496 </text>
<line x1="700.000000" y1="49.500000" x2="700.000000" y2="51.500000"                      style="stroke:rgb(0,0,0);stroke-width:0.5"/>
<text x="700.000000" y="57.500000" style="font-size:6pt"> 578 </text>
<line x1="800.000000" y1="49.500000" x2="800.000000" y2="51.500000"                      style="stroke:rgb(0,0,0);stroke-width:0.5"/>
<text x="800.000000" y="57.500000" style="font-size:6pt"> 661 </text>
<line x1="900.000000" y1="49.500000" x2="900.000000" y2="51.500000"                      style="stroke:rgb(0,0,0);stroke-width:0.5"/>
<text x="900.000000" y="57.500000" style="font-size:6pt"> 743 </text>
<line x1="1000.000000" y1="49.500000" x2="1000.000000" y2="51.500000"                      style="stroke:rgb(0,0,0);stroke-width:0.5"/>
<text x="1000.000000" y="57.500000" style="font-size:6pt"> 826 </text>
</svg>
